<?xml version="1.0" encoding="UTF-8" standalone="no"?>
<!DOCTYPE svg PUBLIC "-//W3C//DTD SVG 1.1//EN" "http://www.w3.org/Graphics/SVG/1.1/DTD/svg11.dtd">
<svg version="1.1" xmlns="http://www.w3.org/2000/svg" xmlns:xlink="http://www.w3.org/1999/xlink" preserveAspectRatio="xMidYMid meet" viewBox="0 0 1200 700" width="1200" height="700"><defs><path d="M1046.67 358.28C1046.67 512.48 921.48 637.67 767.28 637.67C613.07 637.67 487.88 512.48 487.88 358.28C487.88 204.07 613.07 78.88 767.28 78.88C921.48 78.88 1046.67 204.07 1046.67 358.28Z" id="buoT0wFAB"></path><path d="M930.05 358.28C930.05 448.11 857.11 521.05 767.28 521.05C677.44 521.05 604.5 448.11 604.5 358.28C604.5 268.44 677.44 195.5 767.28 195.5C857.11 195.5 930.05 268.44 930.05 358.28Z" id="bLLBPmocg"></path><path d="M1200 126.31L1200 700L0 700L1200 126.31Z" id="c2YkHd0iXc"></path><path d="M613.22 704.37L0 704.37L0 163.63L613.22 704.37Z" id="acYVAeiCy"></path></defs><g><g><g><g><use xlink:href="#buoT0wFAB" opacity="0.19" fill="#000000" fill-opacity="1"></use></g><g><use xlink:href="#bLLBPmocg" opacity="0.2" fill="#ffffff" fill-opacity="1"></use></g></g><g><use xlink:href="#c2YkHd0iXc" opacity="0.09" fill="#ffffff" fill-opacity="1"></use></g><g><use xlink:href="#acYVAeiCy" opacity="0.15" fill="#000000" fill-opacity="1"></use></g></g></g></svg>